<?xml version="1.0" encoding="UTF-8" standalone="no"?>
<svg
   xmlns:dc="http://purl.org/dc/elements/1.1/"
   xmlns:cc="http://creativecommons.org/ns#"
   xmlns:rdf="http://www.w3.org/1999/02/22-rdf-syntax-ns#"
   xmlns:svg="http://www.w3.org/2000/svg"
   xmlns="http://www.w3.org/2000/svg"
   xmlns:sodipodi="http://sodipodi.sourceforge.net/DTD/sodipodi-0.dtd"
   xmlns:inkscape="http://www.inkscape.org/namespaces/inkscape"
   viewBox="0 0 48 48"
   version="1.1"
   id="svg4646"
   sodipodi:docname="check green circle.svg"
   inkscape:version="0.92.3 (2405546, 2018-03-11)">
  <metadata
     id="metadata4650">
    <rdf:RDF>
      <cc:Work
         rdf:about="">
        <dc:format>image/svg+xml</dc:format>
        <dc:type
           rdf:resource="http://purl.org/dc/dcmitype/StillImage" />
        <dc:title></dc:title>
      </cc:Work>
    </rdf:RDF>
  </metadata>
  <sodipodi:namedview
     pagecolor="#ffffff"
     bordercolor="#666666"
     borderopacity="1"
     objecttolerance="10"
     gridtolerance="10"
     guidetolerance="10"
     inkscape:pageopacity="0"
     inkscape:pageshadow="2"
     inkscape:window-width="1920"
     inkscape:window-height="1027"
     id="namedview4648"
     showgrid="false"
     inkscape:zoom="4.9166667"
     inkscape:cx="24"
     inkscape:cy="24"
     inkscape:window-x="-8"
     inkscape:window-y="-8"
     inkscape:window-maximized="1"
     inkscape:current-layer="g4644" />
  <defs
     id="defs4638">
    <linearGradient
       id="0"
       gradientUnits="userSpaceOnUse"
       y1="47.85"
       x2="0"
       y2="-2.292">
      <stop
         stop-color="#4da70e"
         id="stop4633" />
      <stop
         offset="1"
         stop-color="#9ded46"
         id="stop4635" />
    </linearGradient>
  </defs>
  <g
     transform="matrix(.92307 0 0 .92307-24.891 2.712)"
     enable-background="new"
     id="g4644"
     style="fill-opacity:1;opacity:1;fill-rule:nonzero">
    <circle
       r="26"
       cy="23.07"
       cx="52.97"
       fill="url(#0)"
       id="circle4640"
       style="fill-opacity:1;fill-rule:nonzero;fill:#55d400" />
    <path
       d="m66.804 16.712l-2.518-2.518c-.345-.346-.766-.518-1.259-.518-.494 0-.914.173-1.259.518l-12.148 12.167-5.444-5.463c-.346-.346-.766-.518-1.259-.518-.494 0-.914.173-1.259.518l-2.518 2.518c-.346.346-.518.766-.518 1.259 0 .494.173.914.518 1.259l6.704 6.704 2.519 2.518c.345.346.765.518 1.259.518.494 0 .914-.173 1.259-.518l2.519-2.518 13.407-13.407c.345-.346.518-.766.518-1.259 0-.494-.173-.914-.518-1.259"
       fill="#fff"
       fill-opacity=".851"
       id="path4642"
       style="fill-opacity:1;fill-rule:nonzero" />
  </g>
</svg>
