<svg width="21" height="19" viewBox="0 0 21 19" fill="none" xmlns="http://www.w3.org/2000/svg">
<g id="head-chart-bars">
<path id="Vector" d="M17.875 2.5H15.125V3.125H17.875V2.5Z" fill="#4B65F7"/>
<path id="Vector_2" d="M12.375 3.125H9.625V3.75H12.375V3.125Z" fill="#4BEA69"/>
<path id="Vector_3" d="M17.875 3.125H15.125V3.75H17.875V3.125Z" fill="#4B65F7"/>
<path id="Vector_4" d="M12.375 3.75H9.625V4.375H12.375V3.75Z" fill="#4BEA69"/>
<path id="Vector_5" d="M17.875 3.75H15.125V4.375H17.875V3.75Z" fill="#4B65F7"/>
<path id="Vector_6" d="M12.375 4.375H9.625V5H12.375V4.375Z" fill="#4BEA69"/>
<path id="Vector_7" d="M15.125 4.375H12.375V5H15.125V4.375Z" fill="#FF1AD2"/>
<path id="Vector_8" d="M17.875 4.375H15.125V5H17.875V4.375Z" fill="#4B65F7"/>
<path id="Vector_9" d="M9.625 5H6.875V5.625H9.625V5Z" fill="#FFEF16"/>
<path id="Vector_10" d="M12.375 5H9.625V5.625H12.375V5Z" fill="#4BEA69"/>
<path id="Vector_11" d="M15.125 5H12.375V5.625H15.125V5Z" fill="#FF1AD2"/>
<path id="Vector_12" d="M17.875 5H15.125V5.625H17.875V5Z" fill="#4B65F7"/>
<path id="Vector_13" d="M9.625 5.625H6.875V6.25H9.625V5.625Z" fill="#FFEF16"/>
<path id="Vector_14" d="M12.375 5.625H9.625V6.25H12.375V5.625Z" fill="#4BEA69"/>
<path id="Vector_15" d="M15.125 5.625H12.375V6.25H15.125V5.625Z" fill="#FF1AD2"/>
<path id="Vector_16" d="M17.875 5.625H15.125V6.25H17.875V5.625Z" fill="#4B65F7"/>
<path id="Vector_17" d="M9.625 6.25H6.875V6.875H9.625V6.25Z" fill="#FFEF16"/>
<path id="Vector_18" d="M12.375 6.25H9.625V6.875H12.375V6.25Z" fill="#4BEA69"/>
<path id="Vector_19" d="M15.125 6.25H12.375V6.875H15.125V6.25Z" fill="#FF1AD2"/>
<path id="Vector_20" d="M17.875 6.25H15.125V6.875H17.875V6.25Z" fill="#4B65F7"/>
<path id="Vector_21" d="M6.875 6.875H4.125V7.5H6.875V6.875Z" fill="#E9265C"/>
<path id="Vector_22" d="M9.625 6.875H6.875V7.5H9.625V6.875Z" fill="#FFEF16"/>
<path id="Vector_23" d="M12.375 6.875H9.625V7.5H12.375V6.875Z" fill="#4BEA69"/>
<path id="Vector_24" d="M15.125 6.875H12.375V7.5H15.125V6.875Z" fill="#FF1AD2"/>
<path id="Vector_25" d="M17.875 6.875H15.125V7.5H17.875V6.875Z" fill="#4B65F7"/>
<path id="Vector_26" d="M6.875 7.5H4.125V8.125H6.875V7.5Z" fill="#E9265C"/>
<path id="Vector_27" d="M9.625 7.5H6.875V8.125H9.625V7.5Z" fill="#FFEF16"/>
<path id="Vector_28" d="M12.375 7.5H9.625V8.125H12.375V7.5Z" fill="#4BEA69"/>
<path id="Vector_29" d="M15.125 7.5H12.375V8.125H15.125V7.5Z" fill="#FF1AD2"/>
<path id="Vector_30" d="M17.875 7.5H15.125V8.125H17.875V7.5Z" fill="#4B65F7"/>
<path id="Vector_31" d="M6.875 8.125H4.125V8.75H6.875V8.125Z" fill="#E9265C"/>
<path id="Vector_32" d="M9.625 8.125H6.875V8.75H9.625V8.125Z" fill="#FFEF16"/>
<path id="Vector_33" d="M12.375 8.125H9.625V8.75H12.375V8.125Z" fill="#4BEA69"/>
<path id="Vector_34" d="M15.125 8.125H12.375V8.75H15.125V8.125Z" fill="#FF1AD2"/>
<path id="Vector_35" d="M17.875 8.125H15.125V8.75H17.875V8.125Z" fill="#4B65F7"/>
<path id="Vector_36" d="M6.875 8.75H4.125V9.375H6.875V8.75Z" fill="#E9265C"/>
<path id="Vector_37" d="M9.625 8.75H6.875V9.375H9.625V8.75Z" fill="#FFEF16"/>
<path id="Vector_38" d="M12.375 8.75H9.625V9.375H12.375V8.75Z" fill="#4BEA69"/>
<path id="Vector_39" d="M15.125 8.75H12.375V9.375H15.125V8.75Z" fill="#FF1AD2"/>
<path id="Vector_40" d="M17.875 8.75H15.125V9.375H17.875V8.75Z" fill="#4B65F7"/>
<path id="Vector_41" d="M6.875 9.375H4.125V10H6.875V9.375Z" fill="#E9265C"/>
<path id="Vector_42" d="M9.625 9.375H6.875V10H9.625V9.375Z" fill="#FFEF16"/>
<path id="Vector_43" d="M12.375 9.375H9.625V10H12.375V9.375Z" fill="#4BEA69"/>
<path id="Vector_44" d="M15.125 9.375H12.375V10H15.125V9.375Z" fill="#FF1AD2"/>
<path id="Vector_45" d="M17.875 9.375H15.125V10H17.875V9.375Z" fill="#4B65F7"/>
<path id="Vector_46" d="M6.875 10H4.125V10.625H6.875V10Z" fill="#E9265C"/>
<path id="Vector_47" d="M9.625 10H6.875V10.625H9.625V10Z" fill="#FFEF16"/>
<path id="Vector_48" d="M12.375 10H9.625V10.625H12.375V10Z" fill="#4BEA69"/>
<path id="Vector_49" d="M15.125 10H12.375V10.625H15.125V10Z" fill="#FF1AD2"/>
<path id="Vector_50" d="M17.875 10H15.125V10.625H17.875V10Z" fill="#4B65F7"/>
<path id="Vector_51" d="M6.875 10.625H4.125V11.25H6.875V10.625Z" fill="#E9265C"/>
<path id="Vector_52" d="M9.625 10.625H6.875V11.25H9.625V10.625Z" fill="#FFEF16"/>
<path id="Vector_53" d="M12.375 10.625H9.625V11.25H12.375V10.625Z" fill="#4BEA69"/>
<path id="Vector_54" d="M15.125 10.625H12.375V11.25H15.125V10.625Z" fill="#FF1AD2"/>
<path id="Vector_55" d="M17.875 10.625H15.125V11.25H17.875V10.625Z" fill="#4B65F7"/>
<path id="Vector_56" d="M6.875 11.25H4.125V11.875H6.875V11.25Z" fill="#E9265C"/>
<path id="Vector_57" d="M9.625 11.25H6.875V11.875H9.625V11.25Z" fill="#FFEF16"/>
<path id="Vector_58" d="M10.3125 11.25H9.625V11.875H10.3125V11.25Z" fill="#4BEA69"/>
<path id="Vector_59" d="M14.4375 11.25H10.3125V11.875H14.4375V11.25Z" fill="black"/>
<path id="Vector_60" d="M15.125 11.25H14.4375V11.875H15.125V11.25Z" fill="#FF1AD2"/>
<path id="Vector_61" d="M17.875 11.25H15.125V11.875H17.875V11.25Z" fill="#4B65F7"/>
<path id="Vector_62" d="M6.875 11.875H4.125V12.5H6.875V11.875Z" fill="#E9265C"/>
<path id="Vector_63" d="M9.625 11.875H6.875V12.5H9.625V11.875Z" fill="#FFEF16"/>
<path id="Vector_64" d="M12.375 11.875H9.625V12.5H12.375V11.875Z" fill="#4BEA69"/>
<path id="Vector_65" d="M15.125 11.875H12.375V12.5H15.125V11.875Z" fill="#FF1AD2"/>
<path id="Vector_66" d="M17.875 11.875H15.125V12.5H17.875V11.875Z" fill="#4B65F7"/>
<path id="Vector_67" d="M6.875 12.5H4.125V13.125H6.875V12.5Z" fill="#E9265C"/>
<path id="Vector_68" d="M9.625 12.5H6.875V13.125H9.625V12.5Z" fill="#FFEF16"/>
<path id="Vector_69" d="M12.375 12.5H9.625V13.125H12.375V12.5Z" fill="#4BEA69"/>
<path id="Vector_70" d="M15.125 12.5H12.375V13.125H15.125V12.5Z" fill="#FF1AD2"/>
<path id="Vector_71" d="M17.875 12.5H15.125V13.125H17.875V12.5Z" fill="#4B65F7"/>
</g>
</svg>
