<svg width="20" height="18" viewBox="0 0 20 18" fill="none" xmlns="http://www.w3.org/2000/svg">
<g id="head-crt-bsod">
<path id="Vector" d="M16.25 3.125H5V3.75H16.25V3.125Z" fill="#C5B9A1"/>
<path id="Vector_2" d="M16.25 3.75H5V4.375H16.25V3.75Z" fill="#C5B9A1"/>
<path id="Vector_3" d="M6.25 4.375H3.75V5H6.25V4.375Z" fill="#C5B9A1"/>
<path id="Vector_4" d="M6.875 4.375H6.25V5H6.875V4.375Z" fill="#FDF8FF"/>
<path id="Vector_5" d="M8.125 4.375H6.875V5H8.125V4.375Z" fill="#1929F4"/>
<path id="Vector_6" d="M8.75 4.375H8.125V5H8.75V4.375Z" fill="#FDF8FF"/>
<path id="Vector_7" d="M15 4.375H8.75V5H15V4.375Z" fill="#1929F4"/>
<path id="Vector_8" d="M16.25 4.375H15V5H16.25V4.375Z" fill="#C5B9A1"/>
<path id="Vector_9" d="M6.25 5H2.5V5.625H6.25V5Z" fill="#C5B9A1"/>
<path id="Vector_10" d="M7.5 5H6.25V5.625H7.5V5Z" fill="#1929F4"/>
<path id="Vector_11" d="M8.125 5H7.5V5.625H8.125V5Z" fill="#FDF8FF"/>
<path id="Vector_12" d="M15 5H8.125V5.625H15V5Z" fill="#1929F4"/>
<path id="Vector_13" d="M16.25 5H15V5.625H16.25V5Z" fill="#C5B9A1"/>
<path id="Vector_14" d="M6.25 5.625H2.5V6.25H6.25V5.625Z" fill="#C5B9A1"/>
<path id="Vector_15" d="M6.875 5.625H6.25V6.25H6.875V5.625Z" fill="#FDF8FF"/>
<path id="Vector_16" d="M8.125 5.625H6.875V6.25H8.125V5.625Z" fill="#1929F4"/>
<path id="Vector_17" d="M8.75 5.625H8.125V6.25H8.75V5.625Z" fill="#FDF8FF"/>
<path id="Vector_18" d="M15 5.625H8.75V6.25H15V5.625Z" fill="#1929F4"/>
<path id="Vector_19" d="M16.25 5.625H15V6.25H16.25V5.625Z" fill="#C5B9A1"/>
<path id="Vector_20" d="M6.25 6.25H2.5V6.875H6.25V6.25Z" fill="#C5B9A1"/>
<path id="Vector_21" d="M15 6.25H6.25V6.875H15V6.25Z" fill="#1929F4"/>
<path id="Vector_22" d="M16.25 6.25H15V6.875H16.25V6.25Z" fill="#C5B9A1"/>
<path id="Vector_23" d="M6.25 6.875H2.5V7.5H6.25V6.875Z" fill="#C5B9A1"/>
<path id="Vector_24" d="M15 6.875H6.25V7.5H15V6.875Z" fill="#1929F4"/>
<path id="Vector_25" d="M16.25 6.875H15V7.5H16.25V6.875Z" fill="#C5B9A1"/>
<path id="Vector_26" d="M6.25 7.5H2.5V8.125H6.25V7.5Z" fill="#C5B9A1"/>
<path id="Vector_27" d="M15 7.5H6.25V8.125H15V7.5Z" fill="#1929F4"/>
<path id="Vector_28" d="M16.25 7.5H15V8.125H16.25V7.5Z" fill="#C5B9A1"/>
<path id="Vector_29" d="M6.25 8.125H2.5V8.75H6.25V8.125Z" fill="#C5B9A1"/>
<path id="Vector_30" d="M15 8.125H6.25V8.75H15V8.125Z" fill="#1929F4"/>
<path id="Vector_31" d="M16.25 8.125H15V8.75H16.25V8.125Z" fill="#C5B9A1"/>
<path id="Vector_32" d="M3.75 8.75H2.5V9.375H3.75V8.75Z" fill="#9D8E6E"/>
<path id="Vector_33" d="M6.25 8.75H3.75V9.375H6.25V8.75Z" fill="#C5B9A1"/>
<path id="Vector_34" d="M15 8.75H6.25V9.375H15V8.75Z" fill="#1929F4"/>
<path id="Vector_35" d="M16.25 8.75H15V9.375H16.25V8.75Z" fill="#C5B9A1"/>
<path id="Vector_36" d="M6.25 9.375H2.5V10H6.25V9.375Z" fill="#C5B9A1"/>
<path id="Vector_37" d="M15 9.375H6.25V10H15V9.375Z" fill="#1929F4"/>
<path id="Vector_38" d="M16.25 9.375H15V10H16.25V9.375Z" fill="#C5B9A1"/>
<path id="Vector_39" d="M3.75 10H2.5V10.625H3.75V10Z" fill="#9D8E6E"/>
<path id="Vector_40" d="M6.25 10H3.75V10.625H6.25V10Z" fill="#C5B9A1"/>
<path id="Vector_41" d="M15 10H6.25V10.625H15V10Z" fill="#1929F4"/>
<path id="Vector_42" d="M16.25 10H15V10.625H16.25V10Z" fill="#C5B9A1"/>
<path id="Vector_43" d="M6.25 10.625H2.5V11.25H6.25V10.625Z" fill="#C5B9A1"/>
<path id="Vector_44" d="M15 10.625H6.25V11.25H15V10.625Z" fill="#1929F4"/>
<path id="Vector_45" d="M16.25 10.625H15V11.25H16.25V10.625Z" fill="#C5B9A1"/>
<path id="Vector_46" d="M3.75 11.25H2.5V11.875H3.75V11.25Z" fill="#9D8E6E"/>
<path id="Vector_47" d="M6.25 11.25H3.75V11.875H6.25V11.25Z" fill="#C5B9A1"/>
<path id="Vector_48" d="M15 11.25H6.25V11.875H15V11.25Z" fill="#1929F4"/>
<path id="Vector_49" d="M16.25 11.25H15V11.875H16.25V11.25Z" fill="#C5B9A1"/>
<path id="Vector_50" d="M10.625 11.875H2.5V12.5H10.625V11.875Z" fill="#C5B9A1"/>
<path id="Vector_51" d="M11.25 11.875H10.625V12.5H11.25V11.875Z" fill="#F20422"/>
<path id="Vector_52" d="M11.875 11.875H11.25V12.5H11.875V11.875Z" fill="#C5B9A1"/>
<path id="Vector_53" d="M12.5 11.875H11.875V12.5H12.5V11.875Z" fill="#F20422"/>
<path id="Vector_54" d="M16.25 11.875H12.5V12.5H16.25V11.875Z" fill="#C5B9A1"/>
<path id="Vector_55" d="M10 12.5H3.75V13.125H10V12.5Z" fill="#C5B9A1"/>
<path id="Vector_56" d="M10.625 12.5H10V13.125H10.625V12.5Z" fill="#F20422"/>
<path id="Vector_57" d="M11.25 12.5H10.625V13.125H11.25V12.5Z" fill="#C5B9A1"/>
<path id="Vector_58" d="M11.875 12.5H11.25V13.125H11.875V12.5Z" fill="#F20422"/>
<path id="Vector_59" d="M12.5 12.5H11.875V13.125H12.5V12.5Z" fill="#C5B9A1"/>
<path id="Vector_60" d="M13.125 12.5H12.5V13.125H13.125V12.5Z" fill="#F20422"/>
<path id="Vector_61" d="M16.25 12.5H13.125V13.125H16.25V12.5Z" fill="#C5B9A1"/>
<path id="Vector_62" d="M16.25 13.125H5V13.75H16.25V13.125Z" fill="#C5B9A1"/>
</g>
</svg>
