<svg width="20" height="17" viewBox="0 0 20 17" fill="none" xmlns="http://www.w3.org/2000/svg">
<g id="head-bell">
<path id="Vector" d="M10.625 0.625H9.375V1.25H10.625V0.625Z" fill="#FFC110"/>
<path id="Vector_2" d="M10.625 1.25H9.375V1.875H10.625V1.25Z" fill="#FFC110"/>
<path id="Vector_3" d="M12.5 1.875H7.5V2.5H12.5V1.875Z" fill="#FFC110"/>
<path id="Vector_4" d="M8.125 2.5H6.875V3.125H8.125V2.5Z" fill="#FFC110"/>
<path id="Vector_5" d="M8.75 2.5H8.125V3.125H8.75V2.5Z" fill="white"/>
<path id="Vector_6" d="M13.125 2.5H8.75V3.125H13.125V2.5Z" fill="#FFC110"/>
<path id="Vector_7" d="M7.5 3.125H6.25V3.75H7.5V3.125Z" fill="#FFC110"/>
<path id="Vector_8" d="M8.125 3.125H7.5V3.75H8.125V3.125Z" fill="white"/>
<path id="Vector_9" d="M13.75 3.125H8.125V3.75H13.75V3.125Z" fill="#FFC110"/>
<path id="Vector_10" d="M6.875 3.75H5.625V4.375H6.875V3.75Z" fill="#FFC110"/>
<path id="Vector_11" d="M7.5 3.75H6.875V4.375H7.5V3.75Z" fill="white"/>
<path id="Vector_12" d="M14.375 3.75H7.5V4.375H14.375V3.75Z" fill="#FFC110"/>
<path id="Vector_13" d="M14.375 4.375H5.625V5H14.375V4.375Z" fill="#FFC110"/>
<path id="Vector_14" d="M14.375 5H5.625V5.625H14.375V5Z" fill="#FFC110"/>
<path id="Vector_15" d="M15 5.625H5V6.25H15V5.625Z" fill="#FFC110"/>
<path id="Vector_16" d="M15 6.25H5V6.875H15V6.25Z" fill="#FFC110"/>
<path id="Vector_17" d="M15 6.875H5V7.5H15V6.875Z" fill="#FFC110"/>
<path id="Vector_18" d="M15 7.5H5V8.125H15V7.5Z" fill="#FFC110"/>
<path id="Vector_19" d="M15 8.125H5V8.75H15V8.125Z" fill="#FFC110"/>
<path id="Vector_20" d="M15 8.75H5V9.375H15V8.75Z" fill="#D08B11"/>
<path id="Vector_21" d="M15 9.375H5V10H15V9.375Z" fill="#D08B11"/>
<path id="Vector_22" d="M16.25 10H3.75V10.625H16.25V10Z" fill="#FFC110"/>
<path id="Vector_23" d="M4.375 10.625H3.75V11.25H4.375V10.625Z" fill="#FFC110"/>
<path id="Vector_24" d="M5 10.625H4.375V11.25H5V10.625Z" fill="white"/>
<path id="Vector_25" d="M16.25 10.625H5V11.25H16.25V10.625Z" fill="#FFC110"/>
<path id="Vector_26" d="M10 11.25H2.5V11.875H10V11.25Z" fill="#FFC110"/>
<path id="Vector_27" d="M11.875 11.25H10V11.875H11.875V11.25Z" fill="#E8705B"/>
<path id="Vector_28" d="M17.5 11.25H11.875V11.875H17.5V11.25Z" fill="#FFC110"/>
<path id="Vector_29" d="M17.5 11.875H2.5V12.5H17.5V11.875Z" fill="#FFC110"/>
<path id="Vector_30" d="M16.875 12.5H3.125V13.125H16.875V12.5Z" fill="#FFC110"/>
</g>
</svg>
