<svg width="20" height="20" viewBox="0 0 20 20" fill="none" xmlns="http://www.w3.org/2000/svg">
<g id="glasses-square-yellow-saturated">
<path id="Vector" d="M11.5 8.03125H4.9375V9.125H11.5V8.03125Z" fill="#FFEF16"/>
<path id="Vector_2" d="M19.1562 8.03125H12.5938V9.125H19.1562V8.03125Z" fill="#FFEF16"/>
<path id="Vector_3" d="M6.03125 9.125H4.9375V10.2188H6.03125V9.125Z" fill="#FFEF16"/>
<path id="Vector_4" d="M8.21875 9.125H6.03125V10.2188H8.21875V9.125Z" fill="white"/>
<path id="Vector_5" d="M10.4062 9.125H8.21875V10.2188H10.4062V9.125Z" fill="black"/>
<path id="Vector_6" d="M11.5 9.125H10.4062V10.2188H11.5V9.125Z" fill="#FFEF16"/>
<path id="Vector_7" d="M13.6875 9.125H12.5938V10.2188H13.6875V9.125Z" fill="#FFEF16"/>
<path id="Vector_8" d="M15.875 9.125H13.6875V10.2188H15.875V9.125Z" fill="white"/>
<path id="Vector_9" d="M18.0625 9.125H15.875V10.2188H18.0625V9.125Z" fill="black"/>
<path id="Vector_10" d="M19.1562 9.125H18.0625V10.2188H19.1562V9.125Z" fill="#FFEF16"/>
<path id="Vector_11" d="M6.03125 10.2188H1.65625V11.3125H6.03125V10.2188Z" fill="#FFEF16"/>
<path id="Vector_12" d="M8.21875 10.2188H6.03125V11.3125H8.21875V10.2188Z" fill="white"/>
<path id="Vector_13" d="M10.4062 10.2188H8.21875V11.3125H10.4062V10.2188Z" fill="black"/>
<path id="Vector_14" d="M13.6875 10.2188H10.4062V11.3125H13.6875V10.2188Z" fill="#FFEF16"/>
<path id="Vector_15" d="M15.875 10.2188H13.6875V11.3125H15.875V10.2188Z" fill="white"/>
<path id="Vector_16" d="M18.0625 10.2188H15.875V11.3125H18.0625V10.2188Z" fill="black"/>
<path id="Vector_17" d="M19.1562 10.2188H18.0625V11.3125H19.1562V10.2188Z" fill="#FFEF16"/>
<path id="Vector_18" d="M2.75 11.3125H1.65625V12.4062H2.75V11.3125Z" fill="#FFEF16"/>
<path id="Vector_19" d="M6.03125 11.3125H4.9375V12.4062H6.03125V11.3125Z" fill="#FFEF16"/>
<path id="Vector_20" d="M8.21875 11.3125H6.03125V12.4062H8.21875V11.3125Z" fill="white"/>
<path id="Vector_21" d="M10.4062 11.3125H8.21875V12.4062H10.4062V11.3125Z" fill="black"/>
<path id="Vector_22" d="M11.5 11.3125H10.4062V12.4062H11.5V11.3125Z" fill="#FFEF16"/>
<path id="Vector_23" d="M13.6875 11.3125H12.5938V12.4062H13.6875V11.3125Z" fill="#FFEF16"/>
<path id="Vector_24" d="M15.875 11.3125H13.6875V12.4062H15.875V11.3125Z" fill="white"/>
<path id="Vector_25" d="M18.0625 11.3125H15.875V12.4062H18.0625V11.3125Z" fill="black"/>
<path id="Vector_26" d="M19.1562 11.3125H18.0625V12.4062H19.1562V11.3125Z" fill="#FFEF16"/>
<path id="Vector_27" d="M2.75 12.4062H1.65625V13.5H2.75V12.4062Z" fill="#FFEF16"/>
<path id="Vector_28" d="M6.03125 12.4062H4.9375V13.5H6.03125V12.4062Z" fill="#FFEF16"/>
<path id="Vector_29" d="M8.21875 12.4062H6.03125V13.5H8.21875V12.4062Z" fill="white"/>
<path id="Vector_30" d="M10.4062 12.4062H8.21875V13.5H10.4062V12.4062Z" fill="black"/>
<path id="Vector_31" d="M11.5 12.4062H10.4062V13.5H11.5V12.4062Z" fill="#FFEF16"/>
<path id="Vector_32" d="M13.6875 12.4062H12.5938V13.5H13.6875V12.4062Z" fill="#FFEF16"/>
<path id="Vector_33" d="M15.875 12.4062H13.6875V13.5H15.875V12.4062Z" fill="white"/>
<path id="Vector_34" d="M18.0625 12.4062H15.875V13.5H18.0625V12.4062Z" fill="black"/>
<path id="Vector_35" d="M19.1562 12.4062H18.0625V13.5H19.1562V12.4062Z" fill="#FFEF16"/>
<path id="Vector_36" d="M11.5 13.5H4.9375V14.5938H11.5V13.5Z" fill="#FFEF16"/>
<path id="Vector_37" d="M19.1562 13.5H12.5938V14.5938H19.1562V13.5Z" fill="#FFEF16"/>
</g>
</svg>
