<svg width="20" height="17" viewBox="0 0 20 17" fill="none" xmlns="http://www.w3.org/2000/svg">
<g id="head-rgb">
<path id="Vector" d="M11.875 0.625H8.125V1.25H11.875V0.625Z" fill="#FF0E0E"/>
<path id="Vector_2" d="M13.125 1.25H6.875V1.875H13.125V1.25Z" fill="#FF0E0E"/>
<path id="Vector_3" d="M13.75 1.875H6.25V2.5H13.75V1.875Z" fill="#FF0E0E"/>
<path id="Vector_4" d="M14.375 2.5H5.625V3.125H14.375V2.5Z" fill="#FF0E0E"/>
<path id="Vector_5" d="M14.375 3.125H5.625V3.75H14.375V3.125Z" fill="#FF0E0E"/>
<path id="Vector_6" d="M15 3.75H5V4.375H15V3.75Z" fill="#FF0E0E"/>
<path id="Vector_7" d="M5.625 4.375H5V5H5.625V4.375Z" fill="#FF0E0E"/>
<path id="Vector_8" d="M9.375 4.375H5.625V5H9.375V4.375Z" fill="#FFEF16"/>
<path id="Vector_9" d="M10.625 4.375H9.375V5H10.625V4.375Z" fill="#FF0E0E"/>
<path id="Vector_10" d="M14.375 4.375H10.625V5H14.375V4.375Z" fill="#FF1AD2"/>
<path id="Vector_11" d="M15 4.375H14.375V5H15V4.375Z" fill="#FF0E0E"/>
<path id="Vector_12" d="M5 5H4.375V5.625H5V5Z" fill="#0ADC4D"/>
<path id="Vector_13" d="M9.375 5H5V5.625H9.375V5Z" fill="#FFEF16"/>
<path id="Vector_14" d="M10.625 5H9.375V5.625H10.625V5Z" fill="white"/>
<path id="Vector_15" d="M15 5H10.625V5.625H15V5Z" fill="#FF1AD2"/>
<path id="Vector_16" d="M15.625 5H15V5.625H15.625V5Z" fill="#1929F4"/>
<path id="Vector_17" d="M5 5.625H3.75V6.25H5V5.625Z" fill="#0ADC4D"/>
<path id="Vector_18" d="M8.75 5.625H5V6.25H8.75V5.625Z" fill="#FFEF16"/>
<path id="Vector_19" d="M11.25 5.625H8.75V6.25H11.25V5.625Z" fill="white"/>
<path id="Vector_20" d="M15 5.625H11.25V6.25H15V5.625Z" fill="#FF1AD2"/>
<path id="Vector_21" d="M16.25 5.625H15V6.25H16.25V5.625Z" fill="#1929F4"/>
<path id="Vector_22" d="M5 6.25H3.125V6.875H5V6.25Z" fill="#0ADC4D"/>
<path id="Vector_23" d="M8.125 6.25H5V6.875H8.125V6.25Z" fill="#FFEF16"/>
<path id="Vector_24" d="M11.875 6.25H8.125V6.875H11.875V6.25Z" fill="white"/>
<path id="Vector_25" d="M15 6.25H11.875V6.875H15V6.25Z" fill="#FF1AD2"/>
<path id="Vector_26" d="M16.875 6.25H15V6.875H16.875V6.25Z" fill="#1929F4"/>
<path id="Vector_27" d="M5 6.875H3.125V7.5H5V6.875Z" fill="#0ADC4D"/>
<path id="Vector_28" d="M8.125 6.875H5V7.5H8.125V6.875Z" fill="#FFEF16"/>
<path id="Vector_29" d="M11.875 6.875H8.125V7.5H11.875V6.875Z" fill="white"/>
<path id="Vector_30" d="M15 6.875H11.875V7.5H15V6.875Z" fill="#FF1AD2"/>
<path id="Vector_31" d="M16.875 6.875H15V7.5H16.875V6.875Z" fill="#1929F4"/>
<path id="Vector_32" d="M5.625 7.5H2.5V8.125H5.625V7.5Z" fill="#0ADC4D"/>
<path id="Vector_33" d="M7.5 7.5H5.625V8.125H7.5V7.5Z" fill="#FFEF16"/>
<path id="Vector_34" d="M12.5 7.5H7.5V8.125H12.5V7.5Z" fill="white"/>
<path id="Vector_35" d="M14.375 7.5H12.5V8.125H14.375V7.5Z" fill="#FF1AD2"/>
<path id="Vector_36" d="M17.5 7.5H14.375V8.125H17.5V7.5Z" fill="#1929F4"/>
<path id="Vector_37" d="M5.625 8.125H2.5V8.75H5.625V8.125Z" fill="#0ADC4D"/>
<path id="Vector_38" d="M7.5 8.125H5.625V8.75H7.5V8.125Z" fill="#FFEF16"/>
<path id="Vector_39" d="M12.5 8.125H7.5V8.75H12.5V8.125Z" fill="white"/>
<path id="Vector_40" d="M14.375 8.125H12.5V8.75H14.375V8.125Z" fill="#FF1AD2"/>
<path id="Vector_41" d="M17.5 8.125H14.375V8.75H17.5V8.125Z" fill="#1929F4"/>
<path id="Vector_42" d="M6.25 8.75H2.5V9.375H6.25V8.75Z" fill="#0ADC4D"/>
<path id="Vector_43" d="M7.5 8.75H6.25V9.375H7.5V8.75Z" fill="#FFEF16"/>
<path id="Vector_44" d="M12.5 8.75H7.5V9.375H12.5V8.75Z" fill="white"/>
<path id="Vector_45" d="M13.75 8.75H12.5V9.375H13.75V8.75Z" fill="#FF1AD2"/>
<path id="Vector_46" d="M17.5 8.75H13.75V9.375H17.5V8.75Z" fill="#1929F4"/>
<path id="Vector_47" d="M6.875 9.375H2.5V10H6.875V9.375Z" fill="#0ADC4D"/>
<path id="Vector_48" d="M7.5 9.375H6.875V10H7.5V9.375Z" fill="#FFEF16"/>
<path id="Vector_49" d="M12.5 9.375H7.5V10H12.5V9.375Z" fill="white"/>
<path id="Vector_50" d="M13.125 9.375H12.5V10H13.125V9.375Z" fill="#FF1AD2"/>
<path id="Vector_51" d="M17.5 9.375H13.125V10H17.5V9.375Z" fill="#1929F4"/>
<path id="Vector_52" d="M7.5 10H2.5V10.625H7.5V10Z" fill="#0ADC4D"/>
<path id="Vector_53" d="M8.125 10H7.5V10.625H8.125V10Z" fill="#00FCFF"/>
<path id="Vector_54" d="M11.875 10H8.125V10.625H11.875V10Z" fill="white"/>
<path id="Vector_55" d="M12.5 10H11.875V10.625H12.5V10Z" fill="#00FCFF"/>
<path id="Vector_56" d="M17.5 10H12.5V10.625H17.5V10Z" fill="#1929F4"/>
<path id="Vector_57" d="M7.5 10.625H2.5V11.25H7.5V10.625Z" fill="#0ADC4D"/>
<path id="Vector_58" d="M12.5 10.625H7.5V11.25H12.5V10.625Z" fill="#00FCFF"/>
<path id="Vector_59" d="M17.5 10.625H12.5V11.25H17.5V10.625Z" fill="#1929F4"/>
<path id="Vector_60" d="M8.125 11.25H3.125V11.875H8.125V11.25Z" fill="#0ADC4D"/>
<path id="Vector_61" d="M11.875 11.25H8.125V11.875H11.875V11.25Z" fill="#00FCFF"/>
<path id="Vector_62" d="M16.875 11.25H11.875V11.875H16.875V11.25Z" fill="#1929F4"/>
<path id="Vector_63" d="M8.125 11.875H3.125V12.5H8.125V11.875Z" fill="#0ADC4D"/>
<path id="Vector_64" d="M11.875 11.875H8.125V12.5H11.875V11.875Z" fill="#00FCFF"/>
<path id="Vector_65" d="M16.875 11.875H11.875V12.5H16.875V11.875Z" fill="#1929F4"/>
<path id="Vector_66" d="M8.75 12.5H3.75V13.125H8.75V12.5Z" fill="#0ADC4D"/>
<path id="Vector_67" d="M11.25 12.5H8.75V13.125H11.25V12.5Z" fill="#00FCFF"/>
<path id="Vector_68" d="M16.25 12.5H11.25V13.125H16.25V12.5Z" fill="#1929F4"/>
<path id="Vector_69" d="M9.375 13.125H4.375V13.75H9.375V13.125Z" fill="#0ADC4D"/>
<path id="Vector_70" d="M10.625 13.125H9.375V13.75H10.625V13.125Z" fill="#00FCFF"/>
<path id="Vector_71" d="M15.625 13.125H10.625V13.75H15.625V13.125Z" fill="#1929F4"/>
<path id="Vector_72" d="M9.375 13.75H5.625V14.375H9.375V13.75Z" fill="#0ADC4D"/>
<path id="Vector_73" d="M14.375 13.75H10.625V14.375H14.375V13.75Z" fill="#1929F4"/>
</g>
</svg>
